<svg xmlns="http://www.w3.org/2000/svg" viewBox="0 0 64 64">
  <defs>
    <radialGradient id="ocean" cx="35%" cy="28%" r="70%">
      <stop offset="0%" stop-color="#7ee8ff"/>
      <stop offset="55%" stop-color="#168dd1"/>
      <stop offset="100%" stop-color="#0b3f8a"/>
    </radialGradient>
  </defs>
  <circle cx="32" cy="32" r="29" fill="url(#ocean)"/>
  <path fill="#48c774" d="M18 12c6-4 17-5 24 1-4 2-7 3-10 7-5-2-9-3-14-8Zm26 9c5 2 9 7 11 13-4 1-8 0-12-2-2-4-1-8 1-11ZM9 29c5-3 11-3 16 1 2 6-1 11-6 15-6-3-10-9-10-16Zm20 7c5 0 9 2 13 6-3 6-8 9-15 10-2-5-1-11 2-16Z"/>
  <path fill="none" stroke="#d9f7ff" stroke-width="3" stroke-linecap="round" opacity=".9" d="M15 18c10-9 27-9 38 5M12 45c12 10 28 10 40-1"/>
  <circle cx="32" cy="32" r="29" fill="none" stroke="#f7fbff" stroke-width="3"/>
</svg>
